<svg width="24" height="24" viewBox="0 0 24 24" fill="none" xmlns="http://www.w3.org/2000/svg">
<path fill-rule="evenodd" clip-rule="evenodd" d="M21.5994 11.9984C21.5994 17.3004 17.3013 21.5984 11.9994 21.5984C6.69748 21.5984 2.39941 17.3004 2.39941 11.9984C2.39941 6.6965 6.69748 2.39844 11.9994 2.39844C17.3013 2.39844 21.5994 6.6965 21.5994 11.9984ZM13.1994 16.7984C13.1994 17.4612 12.6622 17.9984 11.9994 17.9984C11.3367 17.9984 10.7994 17.4612 10.7994 16.7984C10.7994 16.1357 11.3367 15.5984 11.9994 15.5984C12.6622 15.5984 13.1994 16.1357 13.1994 16.7984ZM11.9994 5.99844C11.3367 5.99844 10.7994 6.5357 10.7994 7.19844V11.9984C10.7994 12.6612 11.3367 13.1984 11.9994 13.1984C12.6622 13.1984 13.1994 12.6612 13.1994 11.9984V7.19844C13.1994 6.5357 12.6622 5.99844 11.9994 5.99844Z" fill="#9B2FAC"/>
</svg>
